<svg xmlns="http://www.w3.org/2000/svg" id="Capa_1" height="512" viewBox="0 0 512 512" width="512"><g><g><path clip-rule="evenodd" d="m383.691 296.782 23.817 81.482v78.591h32.057l27.385-6.519c16.199-3.826 25.006-21.851 20.192-37.779l-30.075-99.139z" fill="#9d9696" fill-rule="evenodd"></path></g><g><path clip-rule="evenodd" d="m63.371 311.661-36.871 78.166c-7.108 15.078-1.019 34.18 14.443 40.33l39.902 15.9 33.615-23.013v-126.262z" fill="#9d9696" fill-rule="evenodd"></path></g><g><path clip-rule="evenodd" d="m260.983 90.824c-62.331 0-124.662 44.439-124.662 133.347l124.407 38.516 124.916-38.516c.001-88.907-62.33-133.347-124.661-133.347z" fill="#eee1dc" fill-rule="evenodd"></path></g><g><path clip-rule="evenodd" d="m248.523 91.42c57.913 5.527 112.173 49.796 112.173 132.752h24.949c0-88.907-62.331-133.347-124.662-133.347-4.163-.001-8.326.198-12.46.595z" fill="#cdbeb9" fill-rule="evenodd"></path></g><g><path clip-rule="evenodd" d="m93.56 241.318c-23.675 1.587-41.573 22.106-39.987 45.8.651 9.381 4.22 17.827 9.798 24.544 8.524 10.26 21.664 16.438 35.994 15.474 5.381-.368 10.45-1.729 15.094-3.854l26.167-37.354-26.167-40.755c-6.343-2.948-13.451-4.365-20.899-3.855z" fill="#fdb440" fill-rule="evenodd"></path></g><g><path clip-rule="evenodd" d="m407.507 245.172-17.926 38.374 17.926 39.735c4.644 2.126 9.714 3.486 15.094 3.854 13.48.907 25.94-4.506 34.465-13.717 6.428-6.972 10.62-16.098 11.328-26.301 1.586-23.694-16.312-44.213-39.987-45.8-7.42-.509-14.556.908-20.9 3.855z" fill="#fdb440" fill-rule="evenodd"></path></g><g><path clip-rule="evenodd" d="m385.645 224.171h-249.323c-12.036 0-21.863 9.438-21.863 21.001v11.393 66.716 12.527l145.08 39.848 147.968-39.99v-12.385-78.109c0-11.563-9.826-21.001-21.862-21.001z" fill="#cdbeb9" fill-rule="evenodd"></path></g><g><path clip-rule="evenodd" d="m140.032 327.901c-8.609 2.097-17.133 4.705-25.572 7.766v150.012c-.227 16.721 7.929 20.548 20.39 17.883 32.794-8.786 66.692-10.118 102.091-1.162l14.783-68.445-14.784-105.884c-33.53-8.502-65.729-7.737-96.908-.17z" fill="#80d261" fill-rule="evenodd"></path></g><g><path clip-rule="evenodd" d="m282.11 328.071-15.066 102.341 15.066 71.988c36.249-8.956 70.94-7.624 104.527 1.162 12.744 2.664 21.098-1.162 20.871-17.883 0-35.795 0-102.88 0-150.012-40.044-14.228-81.588-18.422-125.398-7.596z" fill="#80d261" fill-rule="evenodd"></path></g><g><path clip-rule="evenodd" d="m395.557 378.264c-5.777 0-10.506 4.733-10.506 10.515v28.143 49.002c0 5.782 4.729 10.515 10.506 10.515h9.062 9.798c12.092 0 22.287-8.361 25.148-19.584.51-2.041.793-4.166.793-6.377v-46.253c0-14.284-11.668-25.961-25.94-25.961h-6.91-2.889z" fill="#eee1dc" fill-rule="evenodd"></path></g><g><path clip-rule="evenodd" d="m106.785 375.713c-14.273 0-25.94 11.677-25.94 25.961v44.383 1.871c0 14.284 11.668 25.961 25.94 25.961h7.675 11.186c5.777 0 10.506-4.733 10.506-10.515v-46.452-30.694c0-2.862-1.161-5.442-3.03-7.34-1.897-1.956-4.559-3.174-7.476-3.174h-11.186-7.675z" fill="#eee1dc" fill-rule="evenodd"></path></g><g><path clip-rule="evenodd" d="m468.394 287.118c1.586-23.694-16.312-44.213-39.987-45.8-6.202-.425-12.177.51-17.671 2.522 20.192 4.648 34.578 23.438 33.134 44.78-.51 7.482-2.889 14.398-6.683 20.293-1.359 2.154-2.917 4.138-4.644 6.008-4.588 4.96-10.337 8.843-16.765 11.195 2.209.51 4.503.85 6.825 1.02 13.48.907 25.94-4.506 34.465-13.717 6.427-6.972 10.618-16.098 11.326-26.301z" fill="#fe9737" fill-rule="evenodd"></path></g><g><path clip-rule="evenodd" d="m422.602 327.136c-2.322-.17-4.616-.51-6.825-1.02-2.889-.68-5.636-1.615-8.269-2.834v12.385 14.596c8.666 4.988 22.684 3.373 32.822-2.551 7.759-4.506 9.6 10.43 13.848 24.402l21.494 70.939c.311.964.538 1.956.736 2.948 9.94-7.227 14.499-20.973 10.733-33.443l-30.075-99.139c-8.524 9.211-20.984 14.624-34.464 13.717z" fill="#746e6e" fill-rule="evenodd"></path></g><g><path clip-rule="evenodd" d="m93.56 241.318c-17.501 1.19-31.831 12.669-37.466 28.171 5.437-3.118 11.639-5.073 18.323-5.527 4.389-.283 8.694.085 12.772 1.049 10.223 2.409 8.128 11.847 8.128 21.653v40.557c1.331.028 2.69 0 4.05-.085 5.381-.368 10.45-1.729 15.094-3.854v-26.499-40.217-1.304-10.09c-6.345-2.947-13.453-4.364-20.901-3.854z" fill="#fe9737" fill-rule="evenodd"></path></g><g><path clip-rule="evenodd" d="m95.315 327.221c-12.744-.34-24.241-6.263-31.944-15.56l-11.922 25.281c7.165 5.838 14.953 11.96 24.723 12.215 1.331.028 2.69 0 4.05-.085 3.568-.255 7.023-.935 10.28-1.984 6.145-1.984 4.814 4.648 4.814 12.47v-1.814 20.661c3.455-1.729 7.335-2.692 11.469-2.692h7.675v-39.905-12.527c-4.644 2.126-9.714 3.486-15.094 3.854-1.36.086-2.72.114-4.051.086z" fill="#746e6e" fill-rule="evenodd"></path></g><g><path clip-rule="evenodd" d="m236.94 328.185v88.737 85.591h45.17v-.113-85.478-88.851h-45.17z" fill="#fdb440" fill-rule="evenodd"></path></g><g><path clip-rule="evenodd" d="m219.75 140.762c-12.064 0-21.834 9.778-21.834 21.851 0 12.045 9.77 21.823 21.834 21.823 12.036 0 21.806-9.778 21.806-21.823 0-12.073-9.77-21.851-21.806-21.851z" fill="#60b7ff" fill-rule="evenodd"></path></g><g><path clip-rule="evenodd" d="m297.232 140.762c-12.064 0-21.834 9.778-21.834 21.851 0 12.045 9.77 21.823 21.834 21.823 12.036 0 21.806-9.778 21.806-21.823 0-12.073-9.77-21.851-21.806-21.851z" fill="#60b7ff" fill-rule="evenodd"></path></g><g><path clip-rule="evenodd" d="m241.556 162.613c0-12.073-9.77-21.851-21.806-21.851-3.597 0-6.967.85-9.94 2.381 7.051 3.628 11.866 10.968 11.866 19.471 0 8.474-4.814 15.815-11.866 19.442 2.974 1.53 6.344 2.381 9.94 2.381 12.036-.001 21.806-9.778 21.806-21.824z" fill="#22a6fe" fill-rule="evenodd"></path></g><g><path clip-rule="evenodd" d="m319.038 162.613c0-12.073-9.77-21.851-21.806-21.851-3.597 0-6.967.85-9.968 2.381 7.08 3.628 11.894 10.968 11.894 19.471 0 8.474-4.814 15.815-11.894 19.442 3.002 1.53 6.372 2.381 9.968 2.381 12.036-.001 21.806-9.778 21.806-21.824z" fill="#22a6fe" fill-rule="evenodd"></path></g><g><path clip-rule="evenodd" d="m260.983 7.557c-12.914 0-23.363 10.458-23.363 23.382s10.45 23.382 23.363 23.382c12.914 0 23.363-10.458 23.363-23.382.001-12.924-10.449-23.382-23.363-23.382z" fill="#fd8087" fill-rule="evenodd"></path></g><g><path clip-rule="evenodd" d="m260.983 7.557c-3.172 0-6.202.624-8.977 1.786 8.439 3.514 14.386 11.875 14.386 21.596s-5.947 18.082-14.386 21.596c2.775 1.162 5.805 1.785 8.977 1.785 12.914 0 23.363-10.458 23.363-23.382.001-12.923-10.449-23.381-23.363-23.381z" fill="#fd4755" fill-rule="evenodd"></path></g><g><path clip-rule="evenodd" d="m397.228 42.304c-30.585 8.162-52.164 37.042-49.984 69.862.906 13.859 5.947 26.471 13.791 36.731-2.152 6.235-3.285 10.855-5.437 17.09-.821 14.568 11.753 15.418 20.192 10.94l12.8-6.774c2.775 1.162 5.636 2.154 8.609 2.948 6.967 1.871 14.386 2.664 22.004 2.154 37.268-2.437 65.503-34.69 63.039-72.016-2.435-37.297-34.663-65.554-71.959-63.088-4.475.282-8.864 1.019-13.055 2.153z" fill="#60b7ff" fill-rule="evenodd"></path></g><g><path clip-rule="evenodd" d="m482.242 103.238c-2.435-37.297-34.663-65.554-71.959-63.088-1.246.085-2.492.198-3.738.34 24.864 8.701 43.413 31.544 45.254 59.489 2.266 34.435-21.608 64.562-54.628 70.939-1.558.312-3.115.538-4.701.737 1.558.538 3.115 1.02 4.701 1.445h.028c6.967 1.871 14.386 2.664 22.004 2.154 37.269-2.438 65.503-34.69 63.039-72.016z" fill="#22a6fe" fill-rule="evenodd"></path></g><g><path clip-rule="evenodd" d="m385.362 341.675v44.61c1.104-4.591 5.267-8.021 10.195-8.021h9.062 2.889c0-9.608 0-19.045 0-28.001v-14.596c-4.559-1.615-9.147-3.089-13.735-4.45-2.775-.822-5.551-1.587-8.326-2.296l-.085-.028z" fill="#4fc122" fill-rule="evenodd"></path></g><g><path clip-rule="evenodd" d="m385.362 468.418v34.803c.425.113.85.227 1.274.34 12.744 2.664 21.098-1.162 20.871-17.883v-9.239h-2.889-9.062c-4.927 0-9.09-3.429-10.194-8.021z" fill="#4fc122" fill-rule="evenodd"></path></g><g><path clip-rule="evenodd" d="m407.507 276.376v-31.204c0-11.563-9.827-21.001-21.862-21.001h-24.949-117.384-106.99c-12.036 0-21.863 9.438-21.863 21.001v10.09 1.304 19.811c0-6.972 3.597-13.207 9.119-17.033 3.597-2.494 7.986-3.968 12.744-3.968h100.817 47.293 101.213c5.579 0 10.705 2.041 14.584 5.385 4.475 3.854 7.278 9.437 7.278 15.615z" fill="#9d9696" fill-rule="evenodd"></path></g><g><path d="m359.53 270.651c0-4.174-3.383-7.557-7.557-7.557h-28.404c-4.174 0-7.557 3.383-7.557 7.557s3.383 7.557 7.557 7.557h28.404c4.174 0 7.557-3.383 7.557-7.557z"></path><path d="m494.373 410.363-28.899-95.262c5.938-7.665 9.754-17.101 10.461-27.479 1.862-27.826-19.232-51.981-47.009-53.844-5.294-.364-10.61.118-15.724 1.4-3.33-8.623-10.835-15.281-20.116-17.638-.469-13.385-2.365-26.192-5.659-38.223l1.632-.864c9.84 3.594 20.132 5.054 30.637 4.341 20.043-1.311 38.372-10.363 51.612-25.489 13.239-15.122 19.799-34.501 18.475-54.56-1.309-20.054-10.353-38.395-25.465-51.645-15.113-13.25-34.482-19.82-54.524-18.491-4.824.313-9.567 1.079-14.099 2.275-4.035 1.066-6.443 5.201-5.378 9.236 1.066 4.035 5.201 6.446 9.236 5.378 3.591-.948 7.366-1.556 11.228-1.806 16.022-1.06 31.497 4.188 43.571 14.773 12.075 10.587 19.302 25.242 20.347 41.271 1.059 16.039-4.185 31.528-14.765 43.615-10.577 12.083-25.218 19.314-41.245 20.362-9.366.641-18.508-.888-27.173-4.528-2.087-.878-4.46-.772-6.463.287l-12.809 6.778c-3.215 1.707-6.632 1.852-7.953 1.004-.982-.629-1.165-2.611-1.173-3.913.941-2.793 1.695-5.284 2.426-7.703.824-2.722 1.602-5.293 2.632-8.276.826-2.394.398-5.044-1.14-7.057-4.365-5.708-7.63-12.079-9.712-18.841-.003-.012-.008-.023-.011-.035-1.365-4.442-2.224-9.051-2.531-13.757-1.245-18.984 6.275-37.011 20.632-49.459 3.154-2.734 3.493-7.507.759-10.661-2.733-3.153-7.506-3.492-10.661-.759-16.888 14.642-26.212 35.452-25.972 57.624-20.575-15.027-45.406-23.61-71.002-25.016v-22.462c13.408-3.383 23.363-15.548 23.363-30 0-17.06-13.87-30.939-30.921-30.939s-30.921 13.879-30.921 30.939c0 14.452 9.955 26.617 23.363 30v22.469c-14.719.817-29.459 4.014-43.565 9.73-23.729 9.616-43.658 25.794-57.635 46.785-14.5 21.778-22.335 47.866-23.342 77.618-9.282 2.356-16.775 9.02-20.106 17.643-5.113-1.284-10.43-1.767-15.724-1.406-27.79 1.864-48.884 26.018-47.022 53.853.629 9.237 3.718 17.731 8.576 24.892l-34.945 74.081c-4.536 9.622-4.894 20.828-.981 30.743 3.65 9.247 10.563 16.291 19.463 19.831l35.307 14.069c1.671 16.929 15.981 30.198 33.333 30.198h.117v4.298c-.128 10.122 2.538 17.487 7.922 21.893 3.551 2.906 8.074 4.363 13.505 4.363 2.513 0 5.221-.312 8.116-.937.121-.026.241-.056.36-.087 33.587-8.999 65.735-9.369 98.281-1.136.048.012.095.017.143.028.138.032.278.059.419.084.121.021.241.04.361.055.116.014.234.025.352.034.148.011.295.02.443.022.046.001.091.007.137.007h45.169c1.045 0 2.041-.212 2.946-.596 32.994-7.962 65.609-7.51 99.668 1.399.121.032.244.061.366.087 2.919.609 5.647.914 8.181.914 5.617 0 10.27-1.498 13.893-4.482 5.37-4.425 8.029-11.748 7.902-21.766v-1.647c13.679-.262 25.373-8.761 30.322-20.742l23.301-5.546c9.321-2.202 17.188-8.159 22.152-16.775 5.325-9.237 6.614-20.371 3.536-30.552zm-79.308-160.019c4.124-1.275 8.487-1.788 12.836-1.486 19.476 1.306 34.258 18.242 32.952 37.745-1.328 19.499-18.251 34.306-37.737 32.992-2.735-.187-5.429-.69-8.052-1.501v-67.75zm-169.888-219.405c0-8.726 7.091-15.825 15.806-15.825s15.806 7.099 15.806 15.825c0 8.725-7.091 15.824-15.806 15.824s-15.806-7.099-15.806-15.824zm-151.1 217.918c.838-.057 1.67-.086 2.498-.086 3.538 0 6.992.523 10.328 1.563v67.761c-2.623.81-5.314 1.313-8.042 1.5-19.49 1.309-36.418-13.493-37.746-32.983-1.307-19.511 13.475-36.447 32.962-37.755zm-20.79 152.817v33.236l-29.551-11.775c-4.987-1.984-8.892-6.01-10.993-11.337-2.388-6.051-2.172-12.884.592-18.747l32.416-68.72c8.57 6.577 19.257 10.459 30.714 10.459 1.131 0 2.272-.038 3.415-.115 2.367-.162 4.71-.493 7.021-.982v2.116 32.347h-.117c-18.47 0-33.497 15.036-33.497 33.518zm33.498 64.657c-10.137 0-18.384-8.256-18.384-18.404v-1.989c0-.017 0-.034 0-.051v-44.213c0-10.148 8.247-18.405 18.384-18.405h18.86c1.598 0 2.95 1.355 2.95 2.958v77.146c0 1.603-1.351 2.957-2.95 2.957h-18.86zm122.598 26.721c-31.852-6.566-63.457-5.499-96.301 3.273-4.214.888-7.293.751-8.687-.387-1.581-1.295-2.449-4.955-2.379-10.045 0-.034 0-.068 0-.103v-4.346h3.629c9.961 0 18.064-8.107 18.064-18.072v-77.146c0-9.966-8.103-18.073-18.064-18.073h-3.629v-26.997c36.851-12.538 72.087-14.831 107.367-6.996zm45.169 1.905h-30.055v-159.329h30.055zm6.673-174.443h-43.844c-38.077-9.366-75.935-7.821-115.364 4.741v-1.973-78.109c0-7.414 6.418-13.445 14.306-13.445h106.99c4.174 0 7.557-3.383 7.557-7.557s-3.383-7.557-7.557-7.557h-99.253c2.261-52.189 28.015-91.855 71.478-109.467 14.377-5.826 29.487-8.703 44.451-8.838.326.043.656.073.994.073.342 0 .677-.031 1.007-.075 30.361.226 59.945 11.796 81.416 33.248 2.192 6.579 5.286 12.845 9.239 18.631-.565 1.771-1.07 3.439-1.565 5.073-.822 2.717-1.599 5.283-2.626 8.261-.228.658-.362 1.344-.401 2.04-.627 11.12 4.799 16.315 8.089 18.422 2.994 1.917 6.669 2.872 10.56 2.872 2.225 0 4.521-.323 6.801-.946 2.455 9.71 3.934 19.982 4.402 30.706h-99.364c-4.174 0-7.557 3.383-7.557 7.557s3.383 7.557 7.557 7.557h107.104c7.888 0 14.306 6.031 14.306 13.445v78.109c0 .335.029.662.071.985.01.08.023.159.036.238.042.26.097.516.166.767-40.66-12.746-79.701-14.296-118.999-4.758zm118.726 165.267c.068 5.009-.806 8.634-2.399 9.946-1.476 1.219-4.739 1.384-9.194.474-33.664-8.778-66.051-9.828-98.691-3.219v-158.901c36.267-7.89 72.456-5.604 110.285 6.979v29.647h-4.394c-9.961 0-18.064 8.107-18.064 18.072v77.146c0 9.965 8.103 18.072 18.064 18.072h4.394v1.682c-.001.033-.001.067-.001.102zm14.467-16.899h-18.86c-1.598 0-2.95-1.354-2.95-2.957v-77.146c0-1.603 1.351-2.957 2.95-2.957h18.86c10.137 0 18.383 8.256 18.383 18.404v46.253c0 10.147-8.247 18.403-18.383 18.403zm63.324-35.511c-2.859 4.964-7.309 8.377-12.541 9.613l-17.286 4.114v-42.874c0-18.264-14.678-33.154-32.85-33.501v-35.056c0-.705-.113-1.388-.298-2.044 2.41.526 4.855.883 7.329 1.053 1.145.077 2.282.114 3.413.114 10.122 0 19.638-3.039 27.63-8.283l26.768 88.237c1.873 6.198 1.084 12.988-2.165 18.627z"></path><path d="m198.228 263.094h-28.433c-4.174 0-7.557 3.383-7.557 7.557s3.383 7.557 7.557 7.557h28.433c4.174 0 7.557-3.383 7.557-7.557s-3.384-7.557-7.557-7.557z"></path><path d="m297.232 191.994c16.191 0 29.363-13.18 29.363-29.38 0-16.216-13.172-29.409-29.363-29.409-16.207 0-29.392 13.193-29.392 29.409.001 16.2 13.185 29.38 29.392 29.38zm0-43.675c7.857 0 14.249 6.413 14.249 14.295 0 7.866-6.392 14.266-14.249 14.266-7.872 0-14.277-6.4-14.277-14.266 0-7.882 6.405-14.295 14.277-14.295z"></path><path d="m219.751 133.205c-16.207 0-29.392 13.193-29.392 29.409 0 16.2 13.185 29.38 29.392 29.38 16.191 0 29.363-13.18 29.363-29.38 0-16.217-13.172-29.409-29.363-29.409zm0 43.675c-7.872 0-14.277-6.4-14.277-14.266 0-7.882 6.405-14.295 14.277-14.295 7.857 0 14.249 6.413 14.249 14.295 0 7.866-6.393 14.266-14.249 14.266z"></path><path d="m392.838 133.582h43.81c4.174 0 7.557-3.383 7.557-7.557s-3.383-7.557-7.557-7.557h-43.81c-4.174 0-7.557 3.383-7.557 7.557s3.383 7.557 7.557 7.557z"></path><path d="m392.838 98.721h43.81c4.174 0 7.557-3.383 7.557-7.557s-3.383-7.557-7.557-7.557h-43.81c-4.174 0-7.557 3.383-7.557 7.557s3.383 7.557 7.557 7.557z"></path></g></g></svg>